PathFileType	4	(X/Y/Z)	RBDS04\RBDS04runT45.trc
DataRate	CameraRate	NumFrames	NumMarkers	Units	OrigDataRate	OrigDataStartFrame	OrigNumFrames
150.000000	150.000000	4	33	mm	150.000000	0	4500
Frame#	Time	L.ASIS			L.Heel.Bottom			L.Heel.Lateral			L.Heel.Top			L.Iliac.Crest			L.MT1			L.MT5			L.PSIS			L.Shank.Bottom.Lateral			L.Shank.Bottom.Medial			L.Shank.Top.Lateral			L.Shank.Top.Medial			L.Thigh.Bottom.Lateral			L.Thigh.Bottom.Medial			L.Thigh.Top.Lateral			L.Thigh.Top.Medial			R.ASIS			R.ASY			R.Heel.Bottom			R.Heel.Lateral			R.Heel.Top			R.Iliac.Crest			R.MT1			R.MT5			R.PSIS			R.Shank.Bottom.Lateral			R.Shank.Bottom.Medial			R.Shank.Top.Lateral			R.Shank.Top.Medial			R.Thigh.Bottom.Lateral			R.Thigh.Bottom.Medial			R.Thigh.Top.Lateral			R.Thigh.Top.Medial			
		X1	Y1	Z1	X2	Y2	Z2	X3	Y3	Z3	X4	Y4	Z4	X5	Y5	Z5	X6	Y6	Z6	X7	Y7	Z7	X8	Y8	Z8	X9	Y9	Z9	X10	Y10	Z10	X11	Y11	Z11	X12	Y12	Z12	X13	Y13	Z13	X14	Y14	Z14	X15	Y15	Z15	X16	Y16	Z16	X17	Y17	Z17	X18	Y18	Z18	X19	Y19	Z19	X20	Y20	Z20	X21	Y21	Z21	X22	Y22	Z22	X23	Y23	Z23	X24	Y24	Z24	X25	Y25	Z25	X26	Y26	Z26	X27	Y27	Z27	X28	Y28	Z28	X29	Y29	Z29	X30	Y30	Z30	X31	Y31	Z31	X32	Y32	Z32	X33	Y33	Z33	

1	0	2202.966777730463	974.9033499321488	934.8932580425086	2072.856068572715	311.9139423291719	951.3075863966402	2105.632830180068	311.8176334206316	906.6361342679097	2111.054325795216	339.9055641692689	954.0713530524331	2139.565956053831	1041.0640514795	874.0684060960122	2245.903857288633	180.0691147222359	954.7626522856667	2208.871085025547	206.4941260527885	863.4514952334276	2035.112213546914	1009.624107983113	966.709138471857	2214.165738086395	376.3576646956359	890.8047852671635	2180.045418027812	400.5403301343087	919.4262015749698	2256.137919306897	444.4920304102629	877.6999571122381	2223.419932231633	472.4360138216704	908.9717117676165	2342.547779556528	724.0233004315899	841.6165190775482	2300.708111100868	671.074827913208	869.4788119677495	2251.878656799013	785.5339386405692	829.0248376127305	2211.731432312391	735.1807879864717	852.9568269253307	2181.468745191483	947.8368674957227	1118.218764641642	1724.144012748408	110.2948785833374	1035.675858952206	1582.724027231786	218.9169169573726	1009.455435543439	1604.337976452746	196.8511406314904	1053.809241261361	1622.240871188423	237.3147192042322	1022.082747226072	2148.01102237943	1020.604903532936	1148.17831819507	1722.450668736838	61.24573885869434	985.636279499347	1675.395556252779	70.44573833707665	1078.681021751766	2032.906934269402	1006.523096076149	1052.753864191566	1703.152488717392	268.7293904262463	1086.135334954153	1679.578365779567	293.4837174073597	1043.844804025634	1736.89126840384	340.1281102598286	1105.574430595815	1715.413965244202	362.7184012781977	1062.118037627183	1946.898487398436	624.9502167981731	1144.771122317942	1902.584191477213	648.7091945567387	1090.802837943386	1974.856181486526	730.1207030944313	1164.977715882181	1934.845569327842	752.2906789084814	1111.34554597733	
2	0.006666666666666667	2203.628078268095	977.5540197922498	935.1289893824046	2097.10569325857	290.5473438265271	950.0536826999197	2130.030091439658	292.5434322207304	905.6657423228556	2132.787092251833	321.249898068782	952.672027297299	2140.680749270793	1044.43027135978	874.3131542059268	2278.585050125963	172.6345061097135	955.8044092481881	2240.508648886937	195.189582821143	864.0689453567002	2036.339985191652	1013.726610952224	967.0001056730589	2232.345740344992	365.3567083602682	890.3099134006209	2196.983442357729	387.0386235358797	919.2023915649188	2269.166459904997	435.9148707341818	877.0699500675294	2234.980355222625	461.4974380218495	908.764909366605	2341.338580514616	725.6361648785565	842.9434036809296	2299.129939019695	672.6731905479033	870.5966723027622	2250.813718922762	787.59236806326	830.7551491228269	2210.560332966819	737.6056178034261	855.4151616888192	2182.872480347238	952.0495655470672	1118.806823229352	1706.135372703138	120.8407762884448	1037.189488642482	1575.321614169423	239.3471411953896	1009.068511386221	1593.62228689844	215.4273180471523	1053.502556596914	1615.333704212328	254.2555754009266	1023.084553776471	2149.517603653539	1025.318648412832	1148.624757122097	1702.341554508523	72.37233841193496	986.7150540137967	1653.629145557764	82.71115408093085	1077.169520729291	2034.40593797577	1011.376340259424	1053.19427177876	1692.158026095008	281.1315049727361	1087.32883510628	1669.938390430719	305.7127755096426	1044.330815039752	1727.689103436621	351.9692985234942	1106.23779366144	1707.123204986779	374.4620904876564	1062.279575637441	1943.799161005757	632.7562104328807	1145.79875156565	1900.442166003158	656.8569334947465	1091.229634690286	1973.173134831628	737.5661327741933	1165.672792684034	1934.260419697462	760.0151302259347	1111.354539129154	
3	0.01333333333333333	2204.249512988709	980.1487210980929	935.3205862034936	2121.39126517064	269.2713404143967	948.8889242921227	2154.413920387684	273.3317452869015	904.7594211022831	2154.491015378531	302.616966040184	951.3156582068541	2141.678041564902	1047.669173921301	874.5579993405433	2310.930006214802	165.5392254991515	956.9640528718005	2271.940720525623	184.1376763801232	864.8033220053242	2037.490064566231	1017.698499724558	967.3329861584426	2250.321369480677	354.3309335543077	889.8480712459777	2213.763842226971	373.4831278645105	918.9993984694054	2281.957033361838	427.1993905103403	876.4689265193905	2246.337521312793	450.3873781388218	908.553362074234	2339.877980079997	726.8266798529473	844.2365685398868	2297.249211019785	673.949286239345	871.7543285653766	2249.58455996417	789.3370931103271	832.4153458750299	2209.162652730702	739.7890653651012	857.8232023679946	2184.224766755396	956.2026362993947	1119.365003218216	1688.353754047725	131.7171022619054	1038.537731650888	1567.833702232274	259.7159578155362	1008.749630953004	1582.967171103632	234.0070524636935	1053.231435826443	1608.322350019037	271.2458059655809	1024.061327223728	2150.972991484773	1029.962887015667	1149.052705508285	1682.477386202018	83.85443339446417	987.6320467932724	1632.251783729455	95.33208378128221	1075.660440750153	2035.841663062478	1016.105787932443	1053.675190956114	1681.385919512541	293.6557569483866	1088.445793395057	1660.514472498975	318.1391186142488	1044.796666220044	1718.799196083671	363.8086479027326	1106.876483927237	1699.157887887957	386.2751973133866	1062.45828092328	1941.109102824389	640.1263764174132	1146.841698556871	1898.584849444211	664.5384017907721	1091.748802816166	1971.769429493234	744.6093121918519	1166.412882096374	1933.79056197689	767.3175440738529	1111.519163391798	
4	0.02	2204.793564279443	982.647014661273	935.4433216961513	2145.799754799003	248.2192156489854	947.8773872047158	2178.832177304716	254.3008629425339	903.9640139424808	2176.193207190434	284.0769487412829	950.0340317399006	2142.464384389634	1050.679295270412	874.8053949028497	2342.673366568817	159.1566890314514	958.3486262262146	2303.035912411865	173.6398197575217	865.7601248653374	2038.500246897323	1021.433760489111	967.7428348153285	2267.94482254234	343.3002055494143	889.4542762947511	2230.285689748427	359.8590088954011	918.8398970141427	2294.317877167245	418.2504897787741	875.9306819437727	2257.335586287417	438.9716880627896	908.3413195731036	2337.908985595391	727.2057895180582	845.4554887497582	2294.772205463581	674.6170375719746	872.9919907807005	2248.034628360513	790.4875029997552	833.9407833921921	2207.330529968594	741.5256876301302	860.1408727996355	2185.48033699106	960.2468596533593	1119.872436265213	1670.980432464253	143.230983488223	1039.572418275872	1560.171267347696	279.9988981762104	1008.574851054855	1572.412844065464	252.6164036591676	1053.041624912053	1601.101429358942	288.3513953361627	1025.003968246944	2152.319021456273	1034.479257739937	1149.44880268256	1663.055246732667	96.03072073953483	988.2364200458156	1611.590270258399	108.6340209215193	1074.153703952156	2037.159804561136	1020.606792162434	1054.230029606643	1671.018012421069	306.4251187378698	1089.420619379812	1651.485585278127	330.9559860857164	1045.22555993277	1710.48517179654	375.6577645082422	1107.468762349177	1691.794421863985	398.2360523068426	1062.6725243956	1939.184569255118	646.681963668697	1147.908901590881	1897.266322350817	671.3473438430068	1092.434202312881	1970.885748189893	750.9021832904733	1167.233527004712	1933.534242128931	773.8310154741221	1111.971792250254	
